<svg xmlns="http://www.w3.org/2000/svg" viewBox="54 -102 700 400" width="700" height="400">
  <g transform="translate(145 -73)"><g transform="translate(-94.95347244818208 115.38535746218103) scale(1)"><g><circle cx="159.68064346762856" cy="160.35468136154418" r="13" fill="oklch(0.58 0.12 240)" stroke="#0E0E10" stroke-width="1.2"></circle><path d="M 152.53064346762855 158.4046813615442 q 4.55 -4.55 9.1 -0.65 q -1.95 4.55 -5.8500000000000005 3.25 z" fill="oklch(0.42 0.10 240)" opacity="0.85"></path><path d="M 157.08064346762856 164.2546813615442 q 3.9 1.3 7.15 -1.3 q -2.6 4.55 -6.5 3.9 z" fill="oklch(0.42 0.10 240)" opacity="0.85"></path></g><path d="M 151.30130211733484 169.66088273120613 L 150.0154422964705 168.41320118111352 L 148.8201234970232 167.0673468592126 L 147.71641034842685 165.62451847176115 L 146.70528589010596 164.08600109648933 L 145.78765069591606 162.4531650380247 L 144.9643220720334 160.72746460740936 L 144.2360333290085 158.91043682679455 L 143.60343312863148 157.00370006046822 L 143.06708490619144 155.00895257343313 L 142.62746636864378 152.92797101882078 L 142.28496906913324 150.76260885548714 L 142.03989805825066 148.51479469720076 L 141.89247161233524 146.18653059489245 L 141.8428210390629 143.77989025349729 L 141.89099056049548 141.29701718497682 L 142.03693727369318 138.74012279916658 L 142.28053118892726 136.11148443414908 L 142.6215553454569 133.41344332790703 L 143.05970600476914 130.64840253306295 L 143.59459292110807 127.81882477656293 L 144.22573968905346 124.92723026620982 L 144.9525841678385 121.97619444600092 L 145.7744789820298 118.96834570226832 L 146.69069209812187 115.90636302266543 L 147.70040747653456 112.7929736100846 L 148.8027257984316 109.63095045363094 L 149.99666526671268 106.42310985881645 L 151.28116248046678 103.17230893917294 L 152.65507338210668 99.8814430715193 L 154.11717427634187 96.55344331714873 L 155.6661629200818 93.19127381123293 L 157.30065968229943 89.79792912276865 L 159.01920877282086 86.3764315874179 L 160.82027953894797 82.92982861561723 L 162.70226782875807 79.46118997835397 L 164.6634974198671 75.97360507302633 L 166.7022215123832 72.47018017182342 L 168.81662428472177 68.95403565507489 L 171.00482251089488 65.42830323203589 L 173.2648672378367 61.89612315157996 L 175.5947455212685 58.360641405288625 L 177.9923822185596 54.82500692542306 L 180.45564183698517 51.29236878027974 L 182.98233043573666 47.76587336942217 L 185.57019757998944 44.24866162129133 L 188.21693834528799 40.743866195688476 L 190.92019537046286 37.25460869362241 L 193.6775609572515 33.78399687700669 L 196.48657921475245 30.335121900682665 L 199.34474824680274 26.91105555923434 L 202.24952238033185 23.514847551045342 L 205.19831443270414 20.149522762038572 L 208.18849801603454 16.818078571513077 L 211.21740987642193 13.52348218248165 L 214.28235226601765 10.2686679788848 L 217.38059534581734 7.056534912035708 L 220.50937961703454 3.8899439186237927 L 223.66591837889177 0.7717153725765584 L 226.84740021063925 -2.2953734269506825 L 230.05099147559073 -5.3085907292197945 L 233.27383884494674 -8.265252764986585 L 236.51307183915625 -11.162726136841883 L 239.76580538455443 -13.998430164688024 L 243.02914238299905 -16.769839184262537 L 246.30017629221612 -19.474484796660235 L 249.57599371455711 -22.10995806685157 L 252.85367699186284 -24.67391166923833 L 256.13030680412083 -27.164061978336015 L 259.402964769604 -29.57819110272075 L 262.6687360441729 -31.914148860428917 L 265.92471191742715 -34.16985469405067 L 269.16799240339407 -36.3432995238106 L 272.39568882344736 -38.432547536986846 L 275.6049263791526 -40.43573791207217 L 278.7928467127531 -42.35108647614473 L 281.95661045300994 -44.176887293968804 L 285.09339974413285 -45.91151418741344 L 288.20042075554795 -47.55342218383316 L 291.2749061702664 -49.10114889212218 L 294.31411764963883 -50.55331580521599 L 297.3153482722993 -51.90862952788008 L 300.2759249451279 -53.165882928693144 L 303.19321078408245 -54.32395621519718 L 306.06460746278117 -55.3818179312584 L 308.88755752674183 -56.33852587574969 L 311.65954667122026 -57.19322794173705 L 314.37810598061355 -57.94516287542172 L 317.04081412744 -58.59366095416301 L 319.6452995289313 -59.138144582977226 L 322.1892424593203 -59.57812880898158 L 324.6703771159418 -59.913221753325296 L 327.0864936373036 -60.14312496022246 L 329.4354400713363 -60.26763366277646 L 331.7151242920614 -60.286636965358824 L 333.92351586297735 -60.20011794238003 L 336.05864784549885 -60.00815365336477 L 338.11861855084226 -59.71091507431741 L 340.10159323379366 -59.30866694543984 L 342.00580572685436 -58.80176753533612 L 343.82956001330507 -58.1906683219152" fill="none" stroke="#0E0E10" stroke-width="3" stroke-linecap="round" stroke-linejoin="round"></path><g><line x1="193.6775609572515" y1="33.78399687700669" x2="189.7864762293168" y2="48.2705237085158" stroke="#0E0E10" stroke-width="1.5" stroke-linecap="round"></line><g transform="translate(189.7864762293168 48.2705237085158) rotate(15.034798363145626)"><g transform="scale(1.1139999999999999)"><path d="M 0 0 Q 2 8 4 16" fill="none" stroke="#0E0E10" stroke-width="1.0771992818671454" stroke-linecap="round"></path><g transform="translate(4 16)"><ellipse cx="-3" cy="0" rx="3" ry="7.5" fill="oklch(0.72 0.12 70)" stroke="#0E0E10" stroke-width="0.7181328545780971"></ellipse><ellipse cx="3" cy="3" rx="3" ry="7.5" fill="oklch(0.72 0.12 70)" stroke="#0E0E10" stroke-width="0.7181328545780971"></ellipse><path d="M -3 -7 Q -13 -5 -20 7" fill="none" stroke="#0E0E10" stroke-width="0.8078994614003592" stroke-linecap="round"></path><path d="M 3 -4 Q 13 -2 18 10" fill="none" stroke="#0E0E10" stroke-width="0.8078994614003592" stroke-linecap="round"></path></g></g></g></g><g><line x1="223.66591837889177" y1="0.7717153725765584" x2="218.08362155349224" y2="14.694285614925285" stroke="#0E0E10" stroke-width="1.5" stroke-linecap="round"></line><g transform="translate(218.08362155349224 14.694285614925285) rotate(21.848467298753363)"><g transform="scale(1.169)"><path d="M 0 0 Q 2 8 4 16" fill="none" stroke="#0E0E10" stroke-width="1.0265183917878529" stroke-linecap="round"></path><g transform="translate(4 16)"><ellipse cx="-3" cy="0" rx="3" ry="7.5" fill="oklch(0.72 0.12 70)" stroke="#0E0E10" stroke-width="0.6843455945252352"></ellipse><ellipse cx="3" cy="3" rx="3" ry="7.5" fill="oklch(0.72 0.12 70)" stroke="#0E0E10" stroke-width="0.6843455945252352"></ellipse><path d="M -3 -7 Q -13 -5 -20 7" fill="none" stroke="#0E0E10" stroke-width="0.7698887938408896" stroke-linecap="round"></path><path d="M 3 -4 Q 13 -2 18 10" fill="none" stroke="#0E0E10" stroke-width="0.7698887938408896" stroke-linecap="round"></path></g></g></g></g><g><line x1="252.85367699186284" y1="-24.67391166923833" x2="246.10734271144744" y2="-11.276636805412778" stroke="#0E0E10" stroke-width="1.5" stroke-linecap="round"></line><g transform="translate(246.10734271144744 -11.276636805412778) rotate(26.728005781739867)"><g transform="scale(1.2185000000000001)"><path d="M 0 0 Q 2 8 4 16" fill="none" stroke="#0E0E10" stroke-width="0.9848173984407056" stroke-linecap="round"></path><g transform="translate(4 16)"><ellipse cx="-3" cy="0" rx="3" ry="7.5" fill="oklch(0.72 0.12 70)" stroke="#0E0E10" stroke-width="0.6565449322938038"></ellipse><ellipse cx="3" cy="3" rx="3" ry="7.5" fill="oklch(0.72 0.12 70)" stroke="#0E0E10" stroke-width="0.6565449322938038"></ellipse><path d="M -3 -7 Q -13 -5 -20 7" fill="none" stroke="#0E0E10" stroke-width="0.7386130488305293" stroke-linecap="round"></path><path d="M 3 -4 Q 13 -2 18 10" fill="none" stroke="#0E0E10" stroke-width="0.7386130488305293" stroke-linecap="round"></path></g></g></g></g><g><line x1="278.7928467127531" y1="-42.35108647614473" x2="271.1935407885851" y2="-29.4185480760121" stroke="#0E0E10" stroke-width="1.5" stroke-linecap="round"></line><g transform="translate(271.1935407885851 -29.4185480760121) rotate(30.438976984227594)"><g transform="scale(1.2625)"><path d="M 0 0 Q 2 8 4 16" fill="none" stroke="#0E0E10" stroke-width="0.9504950495049505" stroke-linecap="round"></path><g transform="translate(4 16)"><ellipse cx="-3" cy="0" rx="3" ry="7.5" fill="oklch(0.72 0.12 70)" stroke="#0E0E10" stroke-width="0.6336633663366337"></ellipse><ellipse cx="3" cy="3" rx="3" ry="7.5" fill="oklch(0.72 0.12 70)" stroke="#0E0E10" stroke-width="0.6336633663366337"></ellipse><path d="M -3 -7 Q -13 -5 -20 7" fill="none" stroke="#0E0E10" stroke-width="0.712871287128713" stroke-linecap="round"></path><path d="M 3 -4 Q 13 -2 18 10" fill="none" stroke="#0E0E10" stroke-width="0.712871287128713" stroke-linecap="round"></path></g></g></g></g><g><line x1="303.19321078408245" y1="-54.32395621519718" x2="294.8568910701458" y2="-41.853760802653255" stroke="#0E0E10" stroke-width="1.5" stroke-linecap="round"></line><g transform="translate(294.8568910701458 -41.853760802653255) rotate(33.76270877478055)"><g transform="scale(1.3065)"><path d="M 0 0 Q 2 8 4 16" fill="none" stroke="#0E0E10" stroke-width="0.9184845005740527" stroke-linecap="round"></path><g transform="translate(4 16)"><ellipse cx="-3" cy="0" rx="3" ry="7.5" fill="oklch(0.72 0.12 70)" stroke="#0E0E10" stroke-width="0.6123230003827019"></ellipse><ellipse cx="3" cy="3" rx="3" ry="7.5" fill="oklch(0.72 0.12 70)" stroke="#0E0E10" stroke-width="0.6123230003827019"></ellipse><path d="M -3 -7 Q -13 -5 -20 7" fill="none" stroke="#0E0E10" stroke-width="0.6888633754305397" stroke-linecap="round"></path><path d="M 3 -4 Q 13 -2 18 10" fill="none" stroke="#0E0E10" stroke-width="0.6888633754305397" stroke-linecap="round"></path></g></g></g></g><g><line x1="322.1892424593203" y1="-59.57812880898158" x2="313.2751657265607" y2="-47.514164452167776" stroke="#0E0E10" stroke-width="1.5" stroke-linecap="round"></line><g transform="translate(313.2751657265607 -47.514164452167776) rotate(36.460736496816665)"><g transform="scale(1.345)"><path d="M 0 0 Q 2 8 4 16" fill="none" stroke="#0E0E10" stroke-width="0.8921933085501859" stroke-linecap="round"></path><g transform="translate(4 16)"><ellipse cx="-3" cy="0" rx="3" ry="7.5" fill="oklch(0.72 0.12 70)" stroke="#0E0E10" stroke-width="0.5947955390334573"></ellipse><ellipse cx="3" cy="3" rx="3" ry="7.5" fill="oklch(0.72 0.12 70)" stroke="#0E0E10" stroke-width="0.5947955390334573"></ellipse><path d="M -3 -7 Q -13 -5 -20 7" fill="none" stroke="#0E0E10" stroke-width="0.6691449814126395" stroke-linecap="round"></path><path d="M 3 -4 Q 13 -2 18 10" fill="none" stroke="#0E0E10" stroke-width="0.6691449814126395" stroke-linecap="round"></path></g></g></g></g><g><line x1="336.05864784549885" y1="-60.00815365336477" x2="326.68537937177445" y2="-48.29739628590624" stroke="#0E0E10" stroke-width="1.5" stroke-linecap="round"></line><g transform="translate(326.68537937177445 -48.29739628590624) rotate(38.67371532687048)"><g transform="scale(1.3780000000000001)"><path d="M 0 0 Q 2 8 4 16" fill="none" stroke="#0E0E10" stroke-width="0.8708272859216254" stroke-linecap="round"></path><g transform="translate(4 16)"><ellipse cx="-3" cy="0" rx="3" ry="7.5" fill="oklch(0.72 0.12 70)" stroke="#0E0E10" stroke-width="0.5805515239477503"></ellipse><ellipse cx="3" cy="3" rx="3" ry="7.5" fill="oklch(0.72 0.12 70)" stroke="#0E0E10" stroke-width="0.5805515239477503"></ellipse><path d="M -3 -7 Q -13 -5 -20 7" fill="none" stroke="#0E0E10" stroke-width="0.6531204644412191" stroke-linecap="round"></path><path d="M 3 -4 Q 13 -2 18 10" fill="none" stroke="#0E0E10" stroke-width="0.6531204644412191" stroke-linecap="round"></path></g></g></g></g><g><line x1="343.82956001330507" y1="-58.1906683219152" x2="334.1641238573013" y2="-46.71986434336969" stroke="#0E0E10" stroke-width="1.5" stroke-linecap="round"></line><g transform="translate(334.1641238573013 -46.71986434336969) rotate(40.11788801001947)"><g transform="scale(1.4)"><path d="M 0 0 Q 2 8 4 16" fill="none" stroke="#0E0E10" stroke-width="0.8571428571428572" stroke-linecap="round"></path><g transform="translate(4 16)"><ellipse cx="-3" cy="0" rx="3" ry="7.5" fill="oklch(0.72 0.12 70)" stroke="#0E0E10" stroke-width="0.5714285714285715"></ellipse><ellipse cx="3" cy="3" rx="3" ry="7.5" fill="oklch(0.72 0.12 70)" stroke="#0E0E10" stroke-width="0.5714285714285715"></ellipse><path d="M -3 -7 Q -13 -5 -20 7" fill="none" stroke="#0E0E10" stroke-width="0.6428571428571429" stroke-linecap="round"></path><path d="M 3 -4 Q 13 -2 18 10" fill="none" stroke="#0E0E10" stroke-width="0.6428571428571429" stroke-linecap="round"></path></g></g></g></g></g></g>
  <text x="255" y="215" font-family="Space Grotesk, system-ui, sans-serif" font-size="200" font-weight="600" letter-spacing="-6" fill="#0E0E10">orts</text>
</svg>